<?xml version="1.0" encoding="utf-8"?>
<!-- Generator: Adobe Illustrator 23.0.2, SVG Export Plug-In . SVG Version: 6.00 Build 0)  -->
<svg version="1.1" id="Layer_1" xmlns="http://www.w3.org/2000/svg" xmlns:xlink="http://www.w3.org/1999/xlink" x="0px" y="0px"
	 viewBox="0 0 257.62 257.62" style="enable-background:new 0 0 257.62 257.62;" xml:space="preserve">
<g>
	<path d="M128.89,0c-1.82,3.96-14.86,7.27-13.08,22.85c1.68,14.74,11.56,26.85,12.99,28.55l0,0.05c0.01-0.01,0.01-0.02,0.02-0.02
		c0.01,0.01,0.01,0.02,0.02,0.02l0-0.05c0.01-0.01,0.03-0.04,0.05-0.06c0.02,0.02,0.04,0.05,0.05,0.06l0,0.05
		c0.01-0.01,0.01-0.02,0.02-0.02c0.01,0.01,0.01,0.02,0.02,0.02l0-0.05c1.44-1.69,11.31-13.81,12.99-28.55
		C143.75,7.27,130.7,3.96,128.89,0"/>
	<path d="M79.59,9.78c-0.16,4.36-10.95,12.41-3.34,26.12c7.2,12.98,20.95,20.39,22.93,21.4l0.02,0.04c0-0.01,0.01-0.02,0.01-0.03
		c0.01,0,0.02,0.01,0.03,0.01l-0.02-0.04c0.01-0.02,0.02-0.05,0.02-0.07c0.02,0.01,0.05,0.03,0.07,0.04l0.02,0.04
		c0-0.01,0.01-0.02,0.01-0.03c0.01,0,0.02,0.01,0.03,0.01l-0.02-0.04c0.68-2.11,5.17-17.08,1.08-31.35
		C96.1,10.81,82.78,12.74,79.59,9.78"/>
	<path d="M37.78,37.67c1.52,4.09-5.37,15.65,6.91,25.41c11.61,9.23,27.16,10.82,29.37,11l0.03,0.03c0-0.01,0-0.02,0-0.03
		c0.01,0,0.02,0,0.03,0l-0.03-0.03c0-0.02,0-0.05-0.01-0.08c0.03,0,0.06,0.01,0.08,0.01l0.03,0.03c0-0.01,0-0.02,0-0.03
		c0.01,0,0.02,0,0.03,0l-0.03-0.03c-0.18-2.21-1.77-17.76-11-29.37C53.43,32.31,41.87,39.19,37.78,37.67"/>
	<path d="M9.84,79.44c2.97,3.19,1.03,16.51,16.11,20.83c14.26,4.09,29.23-0.4,31.35-1.08l0.04,0.02c0-0.01-0.01-0.02-0.01-0.03
		c0.01,0,0.02-0.01,0.03-0.01l-0.04-0.02c-0.01-0.02-0.02-0.05-0.04-0.07c0.03-0.01,0.06-0.02,0.07-0.02l0.04,0.02
		c0-0.01-0.01-0.02-0.01-0.03c0.01,0,0.02-0.01,0.03-0.01l-0.04-0.02c-1.02-1.97-8.43-15.73-21.4-22.93
		C22.24,68.5,14.19,79.28,9.84,79.44"/>
	<path d="M0,128.73c3.96,1.82,7.27,14.86,22.85,13.08c14.74-1.68,26.85-11.56,28.55-12.99l0.05,0c-0.01-0.01-0.02-0.01-0.02-0.02
		c0.01-0.01,0.02-0.01,0.02-0.02l-0.05,0c-0.01-0.01-0.04-0.03-0.06-0.05c0.02-0.02,0.05-0.04,0.06-0.05l0.05,0
		c-0.01-0.01-0.02-0.01-0.02-0.02c0.01-0.01,0.02-0.01,0.02-0.02l-0.05,0c-1.69-1.44-13.81-11.31-28.55-12.99
		C7.27,113.87,3.96,126.92,0,128.73"/>
	<path d="M9.78,178.03c4.36,0.16,12.41,10.95,26.12,3.34c12.98-7.2,20.39-20.95,21.4-22.93l0.04-0.02c-0.01,0-0.02-0.01-0.03-0.01
		c0-0.01,0.01-0.02,0.01-0.03l-0.04,0.02c-0.02-0.01-0.05-0.02-0.07-0.02c0.01-0.02,0.03-0.05,0.04-0.07l0.04-0.02
		c-0.01,0-0.02-0.01-0.03-0.01c0-0.01,0.01-0.02,0.01-0.03l-0.04,0.02c-2.11-0.68-17.08-5.17-31.35-1.08
		C10.81,161.52,12.74,174.84,9.78,178.03"/>
	<path d="M37.67,219.84c4.09-1.52,15.65,5.37,25.41-6.91c9.23-11.61,10.82-27.16,11-29.37l0.03-0.03c-0.01,0-0.02,0-0.03,0
		c0-0.01,0-0.02,0-0.03l-0.03,0.03c-0.02,0-0.05,0-0.08,0.01c0-0.03,0.01-0.06,0.01-0.08l0.03-0.03c-0.01,0-0.02,0-0.03,0
		c0-0.01,0-0.02,0-0.03l-0.03,0.03c-2.21,0.18-17.76,1.77-29.37,11C32.31,204.19,39.19,215.75,37.67,219.84"/>
	<path d="M79.44,247.79c3.19-2.97,16.51-1.03,20.83-16.11c4.09-14.26-0.4-29.23-1.08-31.35l0.02-0.04c-0.01,0-0.02,0.01-0.03,0.01
		c0-0.01-0.01-0.02-0.01-0.03l-0.02,0.04c-0.02,0.01-0.05,0.02-0.07,0.04c-0.01-0.03-0.02-0.06-0.02-0.07l0.02-0.04
		c-0.01,0-0.02,0.01-0.03,0.01c0-0.01-0.01-0.02-0.01-0.03l-0.02,0.04c-1.97,1.02-15.73,8.43-22.93,21.4
		C68.5,235.38,79.28,243.43,79.44,247.79"/>
	<path d="M128.73,257.62c1.82-3.96,14.86-7.27,13.08-22.85c-1.68-14.74-11.56-26.85-12.99-28.55l0-0.05
		c-0.01,0.01-0.01,0.02-0.02,0.02c-0.01-0.01-0.01-0.02-0.02-0.02l0,0.05c-0.01,0.01-0.03,0.04-0.05,0.06
		c-0.02-0.02-0.04-0.05-0.05-0.06l0-0.05c-0.01,0.01-0.01,0.02-0.02,0.02c-0.01-0.01-0.01-0.02-0.02-0.02l0,0.05
		c-1.44,1.69-11.31,13.81-12.99,28.55C113.87,250.35,126.92,253.66,128.73,257.62"/>
	<path d="M178.03,247.85c0.16-4.36,10.95-12.41,3.34-26.12c-7.2-12.98-20.95-20.39-22.93-21.4l-0.02-0.04
		c0,0.01-0.01,0.02-0.01,0.03c-0.01,0-0.02-0.01-0.03-0.01l0.02,0.04c-0.01,0.02-0.02,0.05-0.02,0.07
		c-0.02-0.01-0.05-0.03-0.07-0.04l-0.02-0.04c0,0.01-0.01,0.02-0.01,0.03c-0.01,0-0.02-0.01-0.03-0.01l0.02,0.04
		c-0.68,2.11-5.17,17.08-1.08,31.35C161.52,246.81,174.84,244.88,178.03,247.85"/>
	<path d="M219.84,219.95c-1.52-4.09,5.37-15.65-6.91-25.41c-11.61-9.23-27.16-10.82-29.37-11l-0.03-0.03c0,0.01,0,0.02,0,0.03
		c-0.01,0-0.02,0-0.03,0l0.03,0.03c0,0.02,0,0.05,0.01,0.08c-0.03,0-0.06-0.01-0.08-0.01l-0.03-0.03c0,0.01,0,0.02,0,0.03
		c-0.01,0-0.02,0-0.03,0l0.03,0.03c0.18,2.21,1.77,17.76,11,29.37C204.19,225.31,215.75,218.43,219.84,219.95"/>
	<path d="M247.79,178.18c-2.97-3.19-1.03-16.51-16.11-20.83c-14.26-4.09-29.23,0.4-31.35,1.08l-0.04-0.02
		c0,0.01,0.01,0.02,0.01,0.03c-0.01,0-0.02,0.01-0.03,0.01l0.04,0.02c0.01,0.02,0.02,0.05,0.04,0.07c-0.03,0.01-0.06,0.02-0.07,0.02
		l-0.04-0.02c0,0.01,0.01,0.02,0.01,0.03c-0.01,0-0.02,0.01-0.03,0.01l0.04,0.02c1.02,1.97,8.43,15.73,21.4,22.93
		C235.38,189.12,243.43,178.34,247.79,178.18"/>
	<path d="M257.62,128.89c-3.96-1.82-7.27-14.86-22.85-13.08c-14.74,1.68-26.85,11.56-28.55,12.99l-0.05,0
		c0.01,0.01,0.02,0.01,0.02,0.02c-0.01,0.01-0.02,0.01-0.02,0.02l0.05,0c0.01,0.01,0.04,0.03,0.06,0.05
		c-0.02,0.02-0.05,0.04-0.06,0.05l-0.05,0c0.01,0.01,0.02,0.01,0.02,0.02c-0.01,0.01-0.02,0.01-0.02,0.02l0.05,0
		c1.69,1.44,13.81,11.31,28.55,12.99C250.35,143.75,253.66,130.7,257.62,128.89"/>
	<path d="M247.85,79.59c-4.36-0.16-12.41-10.95-26.12-3.34c-12.98,7.2-20.39,20.95-21.4,22.93l-0.04,0.02
		c0.01,0,0.02,0.01,0.03,0.01c0,0.01-0.01,0.02-0.01,0.03l0.04-0.02c0.02,0.01,0.05,0.02,0.07,0.02c-0.01,0.02-0.03,0.05-0.04,0.07
		l-0.04,0.02c0.01,0,0.02,0.01,0.03,0.01c0,0.01-0.01,0.02-0.01,0.03l0.04-0.02c2.11,0.68,17.08,5.17,31.35,1.08
		C246.81,96.1,244.88,82.78,247.85,79.59"/>
	<path d="M219.95,37.78c-4.09,1.52-15.65-5.37-25.41,6.91c-9.23,11.61-10.82,27.16-11,29.37l-0.03,0.03c0.01,0,0.02,0,0.03,0
		c0,0.01,0,0.02,0,0.03l0.03-0.03c0.02,0,0.05,0,0.08-0.01c0,0.03-0.01,0.06-0.01,0.08l-0.03,0.03c0.01,0,0.02,0,0.03,0
		c0,0.01,0,0.02,0,0.03l0.03-0.03c2.21-0.18,17.76-1.77,29.37-11C225.31,53.43,218.43,41.87,219.95,37.78"/>
	<path d="M178.18,9.84c-3.19,2.97-16.51,1.03-20.83,16.11c-4.09,14.26,0.4,29.23,1.08,31.35l-0.02,0.04c0.01,0,0.02-0.01,0.03-0.01
		c0,0.01,0.01,0.02,0.01,0.03l0.02-0.04c0.02-0.01,0.05-0.02,0.07-0.04c0.01,0.03,0.02,0.06,0.02,0.07l-0.02,0.04
		c0.01,0,0.02-0.01,0.03-0.01c0,0.01,0.01,0.02,0.01,0.03l0.02-0.04c1.97-1.02,15.73-8.43,22.93-21.4
		C189.12,22.24,178.34,14.19,178.18,9.84"/>
	<path d="M132.06,13.85"/>
	<circle cx="128.59" cy="128.73" r="25.67"/>
</g>
</svg>
